<?xml version="1.0" encoding="UTF-8"?>
<svg version="1.1" xmlns="http://www.w3.org/2000/svg" width="750" height="150">
<path d="M0 0 C1.70037172 0.73352924 3.39879803 1.47289292 5.07565498 2.25869179 C8.26788336 3.48842195 11.49552682 3.3928492 14.86303711 3.34057617 C15.61508423 3.34101425 16.36713135 3.34145233 17.14196777 3.34190369 C19.60403278 3.33982964 22.06539913 3.31656524 24.52734375 3.29296875 C26.24369434 3.28736785 27.96004975 3.28310008 29.67640686 3.28010559 C34.17605011 3.2686957 38.67539911 3.23926206 43.17492676 3.20599365 C47.7734784 3.1752093 52.37207796 3.16158243 56.97070312 3.14648438 C65.98059745 3.11438837 74.99027418 3.06323906 84 3 C84 2.01 84 1.02 84 0 C84.66 0 85.32 0 86 0 C86 0.66 86 1.32 86 2 C88.97 2.495 88.97 2.495 92 3 C92 3.66 92 4.32 92 5 C93.98 5 95.96 5 98 5 C98 5.66 98 6.32 98 7 C98.99 7.495 98.99 7.495 100 8 C99.79375 8.86625 99.5875 9.7325 99.375 10.625 C98.94450265 14.49947612 99.19413754 16.5453066 101 20 C104.01779872 21.45160938 104.01779872 21.45160938 107 22 C106.75390625 23.859375 106.75390625 23.859375 106 26 C104.15234375 27.265625 104.15234375 27.265625 101.9375 28.25 C100.83728516 28.75273438 100.83728516 28.75273438 99.71484375 29.265625 C99.14894531 29.50796875 98.58304687 29.7503125 98 30 C97.78561249 34.50213776 98.55543356 37.7626051 100 42 C99.505 42.99 99.505 42.99 99 44 C99.66 44 100.32 44 101 44 C101.73080266 45.97746603 102.39421747 47.98072489 103 50 C102.505 50.99 102.505 50.99 102 52 C102.66 52.33 103.32 52.66 104 53 C104.81640625 54.92578125 104.81640625 54.92578125 105.5625 57.3125 C105.81128906 58.09238281 106.06007813 58.87226562 106.31640625 59.67578125 C106.65478516 60.82626953 106.65478516 60.82626953 107 62 C107.31324219 63.03833984 107.31324219 63.03833984 107.6328125 64.09765625 C108.22374947 67.15921266 107.2697092 69.21873223 106 72 C103.875 73.375 103.875 73.375 102 74 C102 74.66 102 75.32 102 76 C101.0409375 75.7215625 101.0409375 75.7215625 100.0625 75.4375 C99.381875 75.293125 98.70125 75.14875 98 75 C97.67 75.33 97.34 75.66 97 76 C93.88272557 76.25017242 90.7511343 76.18522148 87.625 76.1875 C86.7484375 76.19974609 85.871875 76.21199219 84.96875 76.22460938 C84.12570313 76.22654297 83.28265625 76.22847656 82.4140625 76.23046875 C81.6401416 76.23457764 80.8662207 76.23868652 80.06884766 76.24291992 C78 76 78 76 75 74 C74.375 71.5 74.375 71.5 74 68 C73.896875 67.17113281 73.79375 66.34226562 73.6875 65.48828125 C72.86148649 58.41554054 72.86148649 58.41554054 74 55 C73.34 55 72.68 55 72 55 C72.33 53.68 72.66 52.36 73 51 C72.34 51 71.68 51 71 51 C70.9175 50.21625 70.835 49.4325 70.75 48.625 C70.25307028 45.93858116 70.25307028 45.93858116 68.3125 44.625 C65.25049486 43.79743104 63.11833968 44.41163402 60 45 C53.00402121 45.73853903 47.1986381 44.36989452 41 41 C39.46554906 37.93109813 40.45015711 35.29905734 41 32 C40.34 31.67 39.68 31.34 39 31 C38 30 37 29 36 28 C35.34 27.67 34.68 27.34 34 27 C34 26.34 34 25.68 34 25 C32.95545654 25.02094727 31.91091309 25.04189453 30.8347168 25.06347656 C26.96034446 25.13586149 23.0860319 25.18179362 19.21118164 25.21972656 C17.53399608 25.23984565 15.85688069 25.26714451 14.17993164 25.30175781 C11.769518 25.35026569 9.36003128 25.37296464 6.94921875 25.390625 C6.19912033 25.41127014 5.44902191 25.43191528 4.67619324 25.45318604 C-0.50523176 25.45542077 -0.50523176 25.45542077 -2.96166992 23.19433594 C-4.37831438 20.20049621 -4.59099839 17.27201291 -5 14 C-5.37125 13.319375 -5.7425 12.63875 -6.125 11.9375 C-7.49287552 8.90863278 -7.03661673 7.10985019 -6 4 C-3.375 1.4375 -3.375 1.4375 0 0 Z M45 30 C44.60235737 31.98821313 44.26224651 33.98944339 44 36 C48.3882785 39.76138157 51.46712991 42.09381 57.375 41.875 C61.58676164 40.85836788 64.35493278 39.30606294 68 37 C68.34778172 32.8539119 68.34778172 32.8539119 66.8125 29.125 C64.43963721 27.65218861 62.74086056 27.77776806 60 28 C59.731875 29.093125 59.46375 30.18625 59.1875 31.3125 C57.60416667 36.22916667 57.60416667 36.22916667 55 38 C54.01 38 53.02 38 52 38 C52.495 37.54625 52.99 37.0925 53.5 36.625 C55.22609337 35.12364481 55.22609337 35.12364481 55 33 C55.66 33 56.32 33 57 33 C57 31.35 57 29.7 57 28 C55.37536158 27.94604522 53.75021459 27.90722805 52.125 27.875 C51.22007813 27.85179688 50.31515625 27.82859375 49.3828125 27.8046875 C46.81193006 27.75675164 46.81193006 27.75675164 45 30 Z " fill="#211D1E" transform="translate(35,32)"/>
<path d="M0 0 C8.58 0 17.16 0 26 0 C31.40975865 14.33111502 36.74997371 28.68640956 42.03024292 43.06570435 C42.71949252 44.94150247 43.40986491 46.81688841 44.10134888 48.69186401 C45.08247307 51.35331345 46.0593645 54.01627913 47.03515625 56.6796875 C47.33474243 57.49014023 47.63432861 58.30059296 47.94299316 59.13560486 C50 64.77143283 50 64.77143283 50 67 C42.08 67 34.16 67 26 67 C25.34 64.03 24.68 61.06 24 58 C16.74 58.33 9.48 58.66 2 59 C1.01 61.64 0.02 64.28 -1 67 C-8.59 67 -16.18 67 -24 67 C-18.79550095 52.04311294 -13.46163702 37.13758848 -8.0625 22.25 C-7.27529225 20.07685855 -6.48818237 17.90368164 -5.70117188 15.73046875 C-3.80208252 10.48650593 -1.90100607 5.24326984 0 0 Z M12 22 C11.16169027 24.76941606 10.32917966 27.54035069 9.5 30.3125 C9.26152344 31.09818359 9.02304687 31.88386719 8.77734375 32.69335938 C8.55175781 33.45068359 8.32617188 34.20800781 8.09375 34.98828125 C7.88427734 35.68477783 7.67480469 36.38127441 7.45898438 37.09887695 C6.88265736 39.16007833 6.88265736 39.16007833 7 42 C10.96 42 14.92 42 19 42 C17.35873462 35.12231652 15.64714293 28.55483011 13 22 C12.67 22 12.34 22 12 22 Z " fill="#053C70" transform="translate(404,39)"/>
<path d="M0 0 C17.82 0 35.64 0 54 0 C54 5.61 54 11.22 54 17 C43.44 17 32.88 17 22 17 C22 20.63 22 24.26 22 28 C31.24 28 40.48 28 50 28 C50 33.28 50 38.56 50 44 C40.76 44 31.52 44 22 44 C22 51.59 22 59.18 22 67 C14.74 67 7.48 67 0 67 C0 44.89 0 22.78 0 0 Z " fill="#053C70" transform="translate(210,39)"/>
<path d="M0 0 C17.82 0 35.64 0 54 0 C54 5.61 54 11.22 54 17 C43.44 17 32.88 17 22 17 C22 20.63 22 24.26 22 28 C31.24 28 40.48 28 50 28 C50 33.28 50 38.56 50 44 C40.76 44 31.52 44 22 44 C22 51.59 22 59.18 22 67 C14.74 67 7.48 67 0 67 C0 44.89 0 22.78 0 0 Z " fill="#053C70" transform="translate(146,39)"/>
<path d="M0 0 C0.83418457 0.00757324 1.66836914 0.01514648 2.52783203 0.02294922 C10.30049633 0.23064475 17.11198007 1.42459683 22.6875 7.25 C24.625 10.4375 24.625 10.4375 25.625 17.4375 C19.355 17.4375 13.085 17.4375 6.625 17.4375 C6.625 16.4475 6.625 15.4575 6.625 14.4375 C5.00175914 14.21587671 3.376279 14.01060197 1.75 13.8125 C0.84507812 13.69648437 -0.05984375 13.58046875 -0.9921875 13.4609375 C-1.77851563 13.45320313 -2.56484375 13.44546875 -3.375 13.4375 C-4.035 14.0975 -4.695 14.7575 -5.375 15.4375 C-1.08216387 16.97065576 3.16784527 18.35812086 7.609375 19.38671875 C8.31126953 19.55075195 9.01316406 19.71478516 9.73632812 19.88378906 C11.13867442 20.20588047 12.54363402 20.51684099 13.95117188 20.81542969 C19.209875 22.02877924 22.86060503 23.81229416 25.9140625 28.35546875 C27.73855485 33.69862492 27.62047925 40.27362207 25.125 45.375 C19.87130462 51.81077684 12.62081721 53.41239523 4.625 54.4375 C-4.37293535 55.25549412 -13.79064202 53.46454559 -21.375 48.4375 C-25.74036155 44.40793549 -25.78301774 41.06995253 -26.375 35.4375 C-23.27132503 35.29234323 -20.16851973 35.20349147 -17.0625 35.125 C-16.18142578 35.08310547 -15.30035156 35.04121094 -14.39257812 34.99804688 C-11.95685594 34.95174037 -9.76310801 34.94838343 -7.375 35.4375 C-5.59375 37.9375 -5.59375 37.9375 -4.375 40.4375 C-1.87138211 41.0404084 -1.87138211 41.0404084 0.8125 40.75 C1.71355469 40.70488281 2.61460937 40.65976563 3.54296875 40.61328125 C4.23003906 40.55527344 4.91710937 40.49726562 5.625 40.4375 C5.955 39.4475 6.285 38.4575 6.625 37.4375 C5.59761719 37.19515625 4.57023437 36.9528125 3.51171875 36.703125 C-18.28818559 31.47462835 -18.28818559 31.47462835 -23 26.875 C-25.48292894 22.47344415 -25.8932994 18.40375065 -25.375 13.4375 C-23.65333296 8.72556915 -21.58212329 6.14875723 -17.375 3.4375 C-11.40113245 0.79833762 -6.50520879 -0.08260999 0 0 Z " fill="#053C70" transform="translate(483.375,53.5625)"/>
<path d="M0 0 C3.19949749 2.13962255 4.86159965 3.93007119 6.88671875 7.26171875 C7.27699688 9.58620548 7.61791457 11.92007406 7.88671875 14.26171875 C4.80370459 14.37816031 1.72125752 14.44904307 -1.36328125 14.51171875 C-2.67232422 14.56199219 -2.67232422 14.56199219 -4.0078125 14.61328125 C-10.56699502 14.71342144 -10.56699502 14.71342144 -13.52734375 12.265625 C-14.05070313 11.60433594 -14.5740625 10.94304687 -15.11328125 10.26171875 C-18.25850847 9.94719603 -20.27244484 9.84130054 -23.11328125 11.26171875 C-23.11328125 11.92171875 -23.11328125 12.58171875 -23.11328125 13.26171875 C-22.47302002 13.39747314 -21.83275879 13.53322754 -21.1730957 13.6730957 C-18.25521071 14.29735666 -15.34056432 14.9356379 -12.42578125 15.57421875 C-11.41837891 15.78755859 -10.41097656 16.00089844 -9.37304688 16.22070312 C-2.21157216 17.80426354 2.93844766 19.60655179 7.88671875 25.26171875 C9.60909072 30.42883465 9.54233497 35.36771633 7.76171875 40.51171875 C4.1693434 45.78053593 0.06073908 48.74971377 -6.11328125 50.26171875 C-17.02502437 52.32053821 -27.61654373 51.62610068 -37.61328125 46.44921875 C-40.50714658 43.91708659 -42.33652671 41.67855441 -44.11328125 38.26171875 C-44.11328125 36.28171875 -44.11328125 34.30171875 -44.11328125 32.26171875 C-38.17328125 32.26171875 -32.23328125 32.26171875 -26.11328125 32.26171875 C-25.45328125 33.58171875 -24.79328125 34.90171875 -24.11328125 36.26171875 C-21.74714669 37.44478603 -20.24547389 37.39526483 -17.61328125 37.38671875 C-16.81921875 37.38929687 -16.02515625 37.391875 -15.20703125 37.39453125 C-13.05409591 37.39449871 -13.05409591 37.39449871 -11.11328125 36.26171875 C-11.11328125 35.60171875 -11.11328125 34.94171875 -11.11328125 34.26171875 C-11.85191406 34.07996094 -12.59054687 33.89820313 -13.3515625 33.7109375 C-15.48042912 33.18345467 -17.60795331 32.65053537 -19.734375 32.11328125 C-21.86939906 31.57520582 -24.00715085 31.04774224 -26.1484375 30.53515625 C-32.54400713 28.93406454 -37.49787411 27.22584684 -41.98828125 22.13671875 C-43.90324326 17.24292694 -44.01247939 12.24773522 -42.4921875 7.19921875 C-40.06024834 2.18401977 -36.22426408 0.11844298 -31.11328125 -1.73828125 C-21.77383678 -4.39812566 -8.7236205 -4.33897355 0 0 Z " fill="#053C70" transform="translate(560.11328125,56.73828125)"/>
<path d="M0 0 C3.14708812 2.61141355 5.65654398 5.0917643 7 9 C7 10.65 7 12.3 7 14 C0.73 14 -5.54 14 -12 14 C-12.495 12.515 -12.495 12.515 -13 11 C-15.40545638 9.79727181 -16.94996953 9.89928528 -19.625 9.9375 C-20.44226563 9.94652344 -21.25953125 9.95554687 -22.1015625 9.96484375 C-22.72804688 9.97644531 -23.35453125 9.98804687 -24 10 C-23.67 10.99 -23.34 11.98 -23 13 C-20.89204947 13.82154957 -20.89204947 13.82154957 -18.30078125 14.24609375 C-17.33849609 14.44396484 -16.37621094 14.64183594 -15.38476562 14.84570312 C-13.35614654 15.236467 -11.32750122 15.62709471 -9.29882812 16.01757812 C-2.49997607 17.41534611 1.87520136 18.86859502 6.84765625 23.8515625 C9.31400557 28.44984089 8.55276661 33.95600464 8 39 C6.03365188 43.48327371 3.49638887 45.93211732 -0.8828125 48.1875 C-11.94644337 52.43332144 -24.3783373 52.01990409 -35.3125 47.6875 C-40.08575801 44.69033799 -43.44650486 41.50784641 -45 36 C-45 34.68 -45 33.36 -45 32 C-38.73 32 -32.46 32 -26 32 C-25.34 33.32 -24.68 34.64 -24 36 C-21.59454362 37.20272819 -20.05003047 37.10071472 -17.375 37.0625 C-16.14910156 37.04896484 -16.14910156 37.04896484 -14.8984375 37.03515625 C-14.27195312 37.02355469 -13.64546875 37.01195312 -13 37 C-12.67 36.01 -12.34 35.02 -12 34 C-13.57587891 33.61908203 -13.57587891 33.61908203 -15.18359375 33.23046875 C-37.92065178 27.68636419 -37.92065178 27.68636419 -42 22 C-44.39559926 16.32563125 -44.32230175 11.63451734 -42.03515625 5.94140625 C-39.47217381 1.13460523 -35.00548206 -0.92626431 -29.98828125 -2.4609375 C-20.73923147 -4.12939354 -8.37063367 -4.86036794 0 0 Z " fill="#053C70" transform="translate(651,57)"/>
<path d="M0 0 C7.26 0 14.52 0 22 0 C22 16.5 22 33 22 50 C33.22 50 44.44 50 56 50 C56 55.61 56 61.22 56 67 C37.52 67 19.04 67 0 67 C0 44.89 0 22.78 0 0 Z " fill="#053C70" transform="translate(274,39)"/>
<path d="M0 0 C1.17260742 2.234375 1.17260742 2.234375 2 5 C0.98950195 7.140625 0.98950195 7.140625 -0.76171875 9.25 C-1.38626953 10.0234375 -2.01082031 10.796875 -2.65429688 11.59375 C-3.32525391 12.3878125 -3.99621094 13.181875 -4.6875 14 C-5.98530746 15.58150227 -7.28094805 17.16478566 -8.57421875 18.75 C-9.18185059 19.48605469 -9.78948242 20.22210938 -10.41552734 20.98046875 C-12.14750567 23.10080012 -12.14750567 23.10080012 -13.83203125 26.0625 C-14.21746094 26.701875 -14.60289062 27.34125 -15 28 C-15.66 28 -16.32 28 -17 28 C-17.226875 28.6909375 -17.45375 29.381875 -17.6875 30.09375 C-19.29949617 33.66317009 -21.5447061 36.48835279 -24 39.5 C-24.99675811 40.74425975 -25.99283689 41.98906397 -26.98828125 43.234375 C-27.49182129 43.86150391 -27.99536133 44.48863281 -28.51416016 45.13476562 C-30.77792833 47.97656464 -32.98289091 50.86222999 -35.1875 53.75 C-39.38250334 59.22815144 -43.66318481 64.63349405 -48 70 C-52.02771628 68.4973862 -53.48215259 66.1647269 -55.6875 62.5625 C-56.28949219 61.59441406 -56.89148438 60.62632813 -57.51171875 59.62890625 C-59 57 -59 57 -60 54 C-60.66 54 -61.32 54 -62 54 C-64.625 51.625 -64.625 51.625 -67 49 C-67 48.34 -67 47.68 -67 47 C-67.70125 46.7525 -68.4025 46.505 -69.125 46.25 C-72 45 -72 45 -74.5625 43.125 C-79.14324729 39.91001641 -84.70269499 38.6114779 -90 37 C-90 32.69190941 -87.82998336 31.37966591 -84.91210938 28.40429688 C-84.21923828 27.71400391 -83.52636719 27.02371094 -82.8125 26.3125 C-82.13896484 25.61060547 -81.46542969 24.90871094 -80.77148438 24.18554688 C-79.78051758 23.19071289 -79.78051758 23.19071289 -78.76953125 22.17578125 C-78.16729736 21.56645752 -77.56506348 20.95713379 -76.94458008 20.3293457 C-74.44751203 18.62231048 -72.96899179 18.65264443 -70 19 C-64.40606741 22.03296033 -59.14636484 26.16257435 -55 31 C-55 31.66 -55 32.32 -55 33 C-54.34 33 -53.68 33 -53 33 C-50 37.38461538 -50 37.38461538 -50 40 C-47.53770003 39.28254644 -47.53770003 39.28254644 -45 38 C-44.70738281 37.40058594 -44.41476562 36.80117187 -44.11328125 36.18359375 C-42.69657322 33.40485766 -40.90360909 31.86893023 -38.5625 29.8125 C-37.67820312 29.03390625 -36.79390625 28.2553125 -35.8828125 27.453125 C-32.03205027 24.17632462 -28.10968153 20.99465558 -24.15234375 17.84765625 C-21.92865221 16.18011158 -21.92865221 16.18011158 -21 14 C-20.34 14 -19.68 14 -19 14 C-19 13.34 -19 12.68 -19 12 C-18.21625 11.7525 -17.4325 11.505 -16.625 11.25 C-13.59062001 9.80505715 -13.32970275 8.94434181 -12 6 C-11.01 5.67 -10.02 5.34 -9 5 C-9 4.34 -9 3.68 -9 3 C-2.25 0 -2.25 0 0 0 Z " fill="#26A031" transform="translate(400,36)"/>
<path d="M0 0 C3.6815625 -0.0309375 3.6815625 -0.0309375 7.4375 -0.0625 C8.21150146 -0.071604 8.98550293 -0.08070801 9.78295898 -0.09008789 C11.52221717 -0.09724913 13.26145304 -0.05024702 15 0 C16 1 16 1 16.09765625 4.37890625 C16.09098369 5.77347077 16.07902532 7.16801743 16.0625 8.5625 C16.05798828 9.27341797 16.05347656 9.98433594 16.04882812 10.71679688 C16.03700864 12.47790013 16.01907263 14.23896036 16 16 C19.3 16 22.6 16 26 16 C26 20.62 26 25.24 26 30 C22.7 30 19.4 30 16 30 C16.33 37.59 16.66 45.18 17 53 C19.97 53.66 22.94 54.32 26 55 C26 58.96 26 62.92 26 67 C18.25202832 69.23246642 9.58676767 70.29307628 1.90625 67.140625 C-1.43222757 65.0131638 -3.5807674 62.55901608 -4.61889648 58.69848633 C-5.04179339 55.7040728 -5.11255413 52.84848822 -5.09765625 49.82421875 C-5.09443359 48.66728516 -5.09121094 47.51035156 -5.08789062 46.31835938 C-5.07951172 45.12017578 -5.07113281 43.92199219 -5.0625 42.6875 C-5.05798828 41.46998047 -5.05347656 40.25246094 -5.04882812 38.99804688 C-5.03706578 35.99864774 -5.02062826 32.99934911 -5 30 C-7.31 30 -9.62 30 -12 30 C-12 25.38 -12 20.76 -12 16 C-9.36 15.67 -6.72 15.34 -4 15 C-2.68 10.05 -1.36 5.1 0 0 Z " fill="#053C70" transform="translate(676,39)"/>
<path d="M0 0 C6.6 0 13.2 0 20 0 C20 16.83 20 33.66 20 51 C13.4 51 6.8 51 0 51 C0 34.17 0 17.34 0 0 Z " fill="#053C71" transform="translate(578,55)"/>
<path d="M0 0 C4.42977671 2.1357852 7.19613671 4.39012714 9 9 C9.54454427 13.58324763 9.58720242 17.57835205 7.8125 21.875 C4.93966278 25.24315398 1.6066534 28.68198829 -2.953125 29.23828125 C-9.54471367 29.45127476 -12.78915349 27.76797113 -17.8125 23.4375 C-20.65611345 19.99523109 -20.33061314 15.7407021 -20.28125 11.5078125 C-19.75368694 6.80370857 -17.32048406 4.20044005 -13.9375 1.125 C-9.31242228 -0.64630636 -4.88371757 -0.64542523 0 0 Z M-11 5 C-7.37 5.66 -3.74 6.32 0 7 C1 12 1 12 0 15 C1.37492804 18.1668838 1.37492804 18.1668838 3 21 C5.45917586 17.3112362 5.81591937 14.2815571 5 10 C3.25549494 6.9779206 1.16697836 4.58348918 -2 3 C-7.0298641 2.45475431 -7.0298641 2.45475431 -11 5 Z M-14 7 C-16.40355927 10.6053389 -16.75085268 13.79361025 -16 18 C-15.01 19.32 -14.02 20.64 -13 22 C-13 17.05 -13 12.1 -13 7 C-13.33 7 -13.66 7 -14 7 Z M-6 10 C-5 12 -5 12 -5 12 Z M-6 17 C-6 18.98 -6 20.96 -6 23 C-7.98 23 -9.96 23 -12 23 C-10.21892751 25.18939909 -10.21892751 25.18939909 -7.90625 25.265625 C-7.1121875 25.26046875 -6.318125 25.2553125 -5.5 25.25 C-4.30890625 25.25773437 -4.30890625 25.25773437 -3.09375 25.265625 C-0.78107249 25.18939909 -0.78107249 25.18939909 1 23 C-0.65 23 -2.3 23 -4 23 C-4.33 21.02 -4.66 19.04 -5 17 C-5.33 17 -5.66 17 -6 17 Z " fill="#053B6F" transform="translate(730,31)"/>
<path d="M0 0 C16.17 0 32.34 0 49 0 C49 2.31 49 4.62 49 7 C32.83 7 16.66 7 0 7 C0 4.69 0 2.38 0 0 Z " fill="#053B71" transform="translate(331,112)"/>
<path d="M0 0 C6.6 0 13.2 0 20 0 C20 4.62 20 9.24 20 14 C13.4 14 6.8 14 0 14 C0 9.38 0 4.76 0 0 Z " fill="#053C70" transform="translate(578,36)"/>
<path d="M0 0 C0 3 0 3 -1.21826172 4.48291016 C-1.78303223 4.99644043 -2.34780273 5.5099707 -2.9296875 6.0390625 C-3.55512451 6.61487061 -4.18056152 7.19067871 -4.82495117 7.78393555 C-5.50146729 8.39148682 -6.1779834 8.99903809 -6.875 9.625 C-7.56247314 10.2538208 -8.24994629 10.8826416 -8.95825195 11.53051758 C-10.9646914 13.36213668 -12.9805982 15.18269464 -15 17 C-15.92425781 17.83660156 -16.84851563 18.67320313 -17.80078125 19.53515625 C-19.37295306 20.9529413 -20.94840123 22.36710293 -22.52734375 23.77734375 C-26.43288645 27.28801326 -30.28425783 30.85734102 -34.140625 34.421875 C-35.08421875 35.27265625 -36.0278125 36.1234375 -37 37 C-37.51240234 37.47501953 -38.02480469 37.95003906 -38.55273438 38.43945312 C-41.71048981 41.25647209 -42.60056738 42 -47 42 C-46.34 40.68 -45.68 39.36 -45 38 C-44.34 38 -43.68 38 -43 38 C-42.76152344 37.42636719 -42.52304687 36.85273437 -42.27734375 36.26171875 C-40.72949074 33.52102489 -38.92690978 31.88939755 -36.5625 29.8125 C-35.67820312 29.03390625 -34.79390625 28.2553125 -33.8828125 27.453125 C-30.03205027 24.17632462 -26.10968153 20.99465558 -22.15234375 17.84765625 C-19.92865221 16.18011158 -19.92865221 16.18011158 -19 14 C-18.34 14 -17.68 14 -17 14 C-17 13.34 -17 12.68 -17 12 C-16.21625 11.7525 -15.4325 11.505 -14.625 11.25 C-11.59062001 9.80505715 -11.32970275 8.94434181 -10 6 C-9.01 5.67 -8.02 5.34 -7 5 C-7 4.34 -7 3.68 -7 3 C-3.535 1.515 -3.535 1.515 0 0 Z " fill="#3AAA44" transform="translate(398,36)"/>
<path d="M0 0 C-1.64990206 4.29597139 -4.81742807 7.00517646 -8.0625 10.125 C-12.0044894 13.69553366 -12.0044894 13.69553366 -15 18 C-16.32 17.67 -17.64 17.34 -19 17 C-15.43478928 12.6842186 -11.71412126 8.57837078 -7.8125 4.5625 C-6.97332031 3.69753906 -6.13414062 2.83257812 -5.26953125 1.94140625 C-3 0 -3 0 0 0 Z " fill="#4AB254" transform="translate(328,55)"/>
<path d="M0 0 C0 3 0 3 -1 6 C-7.07686728 8.29541057 -14.14010228 7.40406061 -20 5 C-17.37371875 3.59306362 -14.94887797 2.50842724 -12 2 C-11.67 2.33 -11.34 2.66 -11 3 C-6.92720311 2.61577388 -3.53425882 2.12055529 0 0 Z " fill="#191617" transform="translate(100,70)"/>
<path d="M0 0 C8.93426986 3.02048269 16.44970897 11.55646101 22 19 C23.4375 22 23.4375 22 24 24 C19.27458776 21.70479977 16.55008287 18.50333783 14 14 C14 13.34 14 12.68 14 12 C13.34 12 12.68 12 12 12 C9.375 9.625 9.375 9.625 7 7 C7 6.34 7 5.68 7 5 C6.21625 4.731875 5.4325 4.46375 4.625 4.1875 C2 3 2 3 0 0 Z " fill="#57AB60" transform="translate(326,78)"/>
</svg>
